ply
format ascii 1.0
element vertex 5
comment v_com1
comment v_com2
property float x
property float y
property float z
property float nx
property float ny
property float nz
property int flags
property uchar red
property uchar green
property uchar blue
property uchar alpha
element face 6
comment f_com1
comment f_com2
property list uchar int vertex_indices
property uchar flags
property uchar red
property uchar green
property uchar blue
property uchar alpha
end_header
1 -1 0 0.675510823726654053 -0.675510823726654053 -0.219774693250656128 0 255 0 0 255
-1 -1 0 -0.675510823726654053 -0.675510823726654053 -0.219774693250656128 0 0 255 0 255
1 1 0 0.675510823726654053 0.675510823726654053 -0.219774693250656128 0 0 0 255 255
0 0 1 0 0 3.48167896270751953 0 255 255 0 255
-1 1 0 -0.675510823726654053 0.675510823726654053 -0.219774693250656128 0 0 255 255 255
3 0 1 2 0 255 0 0 255
3 1 0 3 0 0 255 0 255
3 0 2 3 0 0 0 255 255
3 3 2 4 0 255 255 0 255
3 2 1 4 0 0 255 255 255
3 1 3 4 0 255 0 255 255
